# Blender 3.3.1
# www.blender.org
mtllib wooden shelter.mtl
o wooden_shelter
v 1.000000 -0.024900 -1.200000
v 1.000000 -0.024900 1.090289
v -1.000000 -0.024900 1.200000
v -1.000000 -0.024900 -1.200001
v 1.000000 -0.010212 -1.269512
v 0.999999 -0.010212 1.175761
v -1.000000 -0.010212 1.269512
v -1.000000 -0.010212 -1.269513
v 1.000000 1.475100 0.000000
v -1.000000 1.475100 -0.000000
v 1.000000 1.559324 0.000001
v -1.000000 1.559324 -0.000000
v 0.894788 -0.228092 0.041085
v 0.894788 1.469640 0.041085
v 0.894788 -0.228092 -0.041085
v 0.894788 1.469640 -0.041085
v 0.976958 -0.228092 0.059607
v 0.976958 1.469640 0.041085
v 0.976958 -0.228092 -0.059607
v 0.976958 1.469640 -0.041085
v 1.000000 0.766713 -0.680227
v 1.000000 0.717257 -0.645471
v -1.000000 0.858772 -0.621654
v -1.000000 0.809316 -0.586898
v -1.000000 0.781798 0.588093
v -1.000000 0.732341 0.553336
v 1.000000 0.781798 0.579208
v 1.000000 0.732341 0.517819
v 0.000000 -0.092630 -1.200000
v 0.000000 -0.092630 1.200000
v 0.000000 -0.077942 -1.269513
v -0.000001 -0.077942 1.269513
v -0.000000 1.491594 0.000000
v 0.000000 1.407370 -0.000000
v -0.000000 0.714068 0.588093
v 0.000000 0.664611 0.553336
v 0.000000 0.649527 -0.645471
v 0.000000 0.698983 -0.680228
v -0.969503 -0.228092 0.041085
v -0.969503 1.469640 0.041085
v -0.969503 -0.228092 -0.041085
v -0.969503 1.469640 -0.041085
v -0.887333 -0.228092 0.041085
v -0.887333 1.469640 0.041085
v -0.887333 -0.228092 -0.041085
v -0.887333 1.469640 -0.041085
v -1.047467 1.560973 0.053501
v 1.018805 1.560973 0.053501
v -1.047467 1.591812 -0.022662
v 1.018805 1.591812 -0.022662
v -1.047467 1.484809 0.022662
v 1.018805 1.484810 0.022662
v -1.047467 1.515649 -0.053501
v 1.018805 1.515649 -0.053501
v -0.014331 1.493243 0.053501
v -0.014331 1.524082 -0.022662
v -0.014331 1.447919 -0.053501
v -0.014331 1.417079 0.022662
v -0.977352 0.620774 -0.010195
v -0.977352 0.620774 -0.108063
v -0.879483 0.620774 -0.108063
v -0.879483 0.620774 -0.010195
vn -0.0439 -0.6488 -0.7597
vn 0.0441 0.6516 0.7573
vn 1.0000 -0.0000 -0.0000
vn -0.0661 -0.9763 0.2063
vn -1.0000 -0.0000 -0.0000
vn -0.0661 -0.9763 -0.2063
vn 0.0526 0.6563 -0.7527
vn -0.0522 -0.6536 0.7550
vn -0.1120 0.0054 -0.9937
vn -0.1120 0.0054 0.9937
vn -0.0000 -1.0000 -0.0000
vn -0.0000 1.0000 -0.0000
vn -0.0441 -0.5946 0.8028
vn -0.0404 -0.5969 -0.8013
vn 0.0409 0.6038 -0.7961
vn 0.0408 0.6027 0.7969
vn -0.0371 0.5999 0.7992
vn -0.0409 0.6038 -0.7961
vn 0.0252 -0.5847 -0.8109
vn 0.0405 -0.5981 0.8004
vn 0.0439 -0.6478 0.7606
vn -0.0441 0.6506 -0.7581
vn 0.0661 -0.9763 -0.2063
vn 0.0852 -0.9789 0.1856
vn -0.0336 0.6013 0.7983
vn -0.0141 -0.6270 -0.7789
vn -1.0000 0.0092 -0.0000
vn -0.0000 0.0787 -0.9969
vn 1.0000 0.0092 -0.0000
vn -0.0000 -0.0603 0.9982
vn -0.0607 0.9252 0.3746
vn -0.0246 0.3752 -0.9266
vn 0.0607 -0.9252 -0.3746
vn 0.0246 -0.3752 0.9266
vn -0.0246 -0.3752 0.9266
vn -0.0607 -0.9252 -0.3746
vn 0.0246 0.3752 -0.9266
vn 0.0607 0.9252 0.3746
vn -0.0000 0.0603 0.9982
vn 0.0269 0.6520 0.7578
vn 0.0485 0.5970 -0.8008
vn 1.0000 -0.0092 -0.0000
vn -0.0000 -0.0787 -0.9969
vn -1.0000 -0.0092 -0.0000
vt 0.564868 0.531709
vt 0.451428 0.552421
vt 0.199834 0.019935
vt 0.511943 0.524530
vt 0.199834 0.000088
vt 0.106204 0.547712
vt 0.405513 0.547712
vt 0.166645 0.000088
vt 0.053999 0.521804
vt 0.948598 0.513271
vt 0.166645 0.019935
vt 0.158781 0.552421
vt 0.592212 0.528896
vt 0.199834 0.010099
vt 0.199834 0.009924
vt 0.481594 0.530063
vt 0.166645 0.009924
vt 0.084218 0.530063
vt 0.166645 0.010099
vt 0.921580 0.523038
vt 0.559143 0.951266
vt 0.515675 0.981746
vt 0.106211 0.973154
vt 0.451459 0.968445
vt 0.048213 0.941492
vt 0.158776 0.968445
vt 0.405483 0.973154
vt 0.947847 0.985344
vt 0.499823 0.984710
vt 0.573158 0.998292
vt 0.063439 0.984705
vt 0.936722 0.992438
vt 0.095873 0.015681
vt 0.010163 0.015951
vt 0.192300 0.051037
vt 0.095873 0.460469
vt 0.010163 0.460739
vt 0.174423 0.008949
vt 0.074446 0.015749
vt 0.174423 0.051037
vt 0.074446 0.460536
vt 0.174423 0.026827
vt 0.031591 0.015884
vt 0.192300 0.029584
vt 0.031591 0.460671
vt 0.195876 0.008949
vt 0.053018 0.015816
vt 0.174423 0.029584
vt 0.053018 0.460604
vt 0.195876 0.026827
vt 0.580802 0.752603
vt 0.558585 0.721947
vt 0.451447 0.760427
vt 0.931086 0.746744
vt 0.158782 0.760427
vt 0.950578 0.738009
vt 0.071664 0.746735
vt 0.047177 0.712106
vt 0.405495 0.760439
vt 0.492883 0.746734
vt 0.517803 0.731852
vt 0.106204 0.760439
vt 0.305104 0.552421
vt 0.183240 0.019935
vt 0.183240 0.000088
vt 0.255858 0.547712
vt 0.746924 0.523037
vt 0.183240 0.010099
vt 0.183240 0.009924
vt 0.282659 0.530064
vt 0.281898 0.984705
vt 0.745410 0.992433
vt 0.255847 0.973154
vt 0.305118 0.968445
vt 0.282271 0.746747
vt 0.255849 0.760439
vt 0.305114 0.760427
vt 0.746171 0.746756
vt 0.192300 0.051037
vt 0.010163 0.015951
vt 0.095873 0.015681
vt 0.095873 0.460469
vt 0.010163 0.460739
vt 0.174423 0.008949
vt 0.174423 0.051037
vt 0.074446 0.015749
vt 0.074446 0.460536
vt 0.174423 0.026827
vt 0.192300 0.029584
vt 0.031591 0.015884
vt 0.031591 0.460671
vt 0.195876 0.008949
vt 0.174423 0.029584
vt 0.053018 0.015816
vt 0.053018 0.460604
vt 0.195876 0.026827
vt 0.192300 0.051037
vt 0.113679 0.010092
vt 0.199389 0.009822
vt 0.199389 0.454610
vt 0.113679 0.454880
vt 0.174423 0.008949
vt 0.174423 0.051037
vt 0.177961 0.009890
vt 0.177961 0.454677
vt 0.174423 0.026827
vt 0.192300 0.029584
vt 0.135106 0.010025
vt 0.135106 0.454812
vt 0.195876 0.008949
vt 0.174423 0.029584
vt 0.156534 0.009957
vt 0.156534 0.454745
vt 0.195876 0.026827
vt 0.113679 0.232486
vt 0.199389 0.232216
vt 0.177961 0.232283
vt 0.156534 0.232351
vt 0.135106 0.232418
vt 0.010163 0.238345
vt 0.095873 0.238075
vt 0.074446 0.238143
vt 0.053018 0.238210
vt 0.031591 0.238278
s 0
usemtl wooden_shelter
f 36/76/1 30/66/1 3/7/1 26/59/1
f 35/75/2 25/57/2 7/18/2
f 28/61/3 27/60/3 6/16/3 2/4/3
f 30/65/4 32/69/4 7/17/4 3/8/4
f 24/56/5 23/54/5 8/20/5 4/10/5
f 31/68/6 29/64/6 4/11/6 8/19/6
f 26/58/5 25/57/5 12/31/5 10/25/5
f 22/52/3 21/51/3 11/30/3 9/21/3
f 38/78/7 23/54/7 12/32/7 33/72/7
f 37/77/8 34/74/8 10/26/8 24/55/8
f 13/33/5 14/36/5 16/41/5 15/39/5
f 15/39/9 16/41/9 20/49/9 19/47/9
f 19/47/3 20/49/3 18/45/3 17/43/3
f 17/43/10 18/45/10 14/37/10 13/34/10
f 15/40/11 19/48/11 17/44/11 13/35/11
f 20/50/12 16/42/12 14/38/12 18/46/12
f 29/63/13 37/77/13 24/55/13 4/12/13
f 9/22/3 11/29/3 27/60/3 28/61/3
f 3/9/5 7/18/5 25/57/5 26/58/5
f 34/73/14 36/76/14 26/59/14 10/27/14
f 31/67/15 8/20/15 38/78/15
f 33/71/16 12/31/16 25/57/16 35/75/16
f 1/1/3 5/13/3 21/51/3 22/52/3
f 10/28/5 12/32/5 23/54/5 24/56/5
f 11/29/17 33/71/17 35/75/17 27/60/17
f 5/13/18 31/67/18 38/78/18 21/51/18
f 9/23/19 28/62/19 36/76/19 34/73/19
f 1/2/20 22/53/20 37/77/20 29/63/20
f 22/53/21 9/24/21 34/74/21 37/77/21
f 21/51/22 38/78/22 33/72/22 11/30/22
f 5/14/23 1/3/23 29/64/23 31/68/23
f 2/5/24 6/15/24 32/69/24 30/65/24
f 27/60/25 35/75/25 6/16/25
f 28/62/26 2/6/26 30/66/26 36/76/26
f 59/121/27 40/82/27 42/87/27 60/122/27
f 60/122/28 42/87/28 46/95/28 61/123/28
f 61/123/29 46/95/29 44/91/29 62/124/29
f 62/124/30 44/91/30 40/83/30 59/120/30
f 41/85/11 45/93/11 43/89/11 39/79/11
f 46/96/12 42/88/12 40/84/12 44/92/12
f 55/116/31 48/100/31 50/105/31 56/117/31
f 56/117/32 50/105/32 54/113/32 57/118/32
f 57/118/33 54/113/33 52/109/33 58/119/33
f 58/119/34 52/109/34 48/101/34 55/115/34
f 49/103/5 53/111/5 51/107/5 47/97/5
f 54/114/3 50/106/3 48/102/3 52/110/3
f 51/108/35 58/119/35 55/115/35 47/98/35
f 53/112/36 57/118/36 58/119/36 51/108/36
f 49/104/37 56/117/37 57/118/37 53/112/37
f 47/99/38 55/116/38 56/117/38 49/104/38
f 43/90/39 62/124/39 59/120/39 39/80/39
f 6/16/40 35/75/40 32/70/40
f 7/18/2 32/70/2 35/75/2
f 38/78/41 8/20/41 23/54/41
f 45/94/42 61/123/42 62/124/42 43/90/42
f 41/86/43 60/122/43 61/123/43 45/94/43
f 39/81/44 59/121/44 60/122/44 41/86/44
